<?xml version="1.0" standalone="no"?>
<!DOCTYPE svg PUBLIC "-//W3C//DTD SVG 20010904//EN"
 "http://www.w3.org/TR/2001/REC-SVG-20010904/DTD/svg10.dtd">
<svg version="1.0" xmlns="http://www.w3.org/2000/svg"
 width="260.000000pt" height="260.000000pt" viewBox="0 0 260.000000 260.000000"
 preserveAspectRatio="xMidYMid meet">
<metadata>
Created by potrace 1.11, written by Peter Selinger 2001-2013
</metadata>
<g transform="translate(0.000000,260.000000) scale(0.100000,-0.100000)"
fill="#000000" stroke="none">
<path d="M0 1300 l0 -1300 1300 0 1300 0 0 1300 0 1300 -1300 0 -1300 0 0
-1300z m964 497 c33 -78 101 -243 152 -367 50 -124 115 -280 143 -348 28 -67
51 -125 51 -128 0 -3 -18 -4 -41 -2 l-41 3 -64 149 c-35 82 -66 152 -69 154
-4 4 -301 6 -436 3 -24 -1 -31 -12 -82 -133 -30 -73 -58 -143 -62 -155 -5 -19
-13 -23 -51 -23 -24 0 -44 3 -44 6 0 3 29 74 64 158 35 83 121 288 191 456 70
168 134 320 141 338 13 28 19 32 52 32 l37 0 59 -143z m1001 88 c29 -11 68
-37 96 -65 38 -38 49 -57 59 -103 13 -62 6 -114 -21 -168 -18 -36 -72 -89 -90
-89 -22 0 -6 -17 26 -29 88 -31 138 -109 138 -211 0 -109 -40 -170 -143 -219
-55 -26 -56 -26 -347 -29 l-293 -3 0 471 0 471 263 -3 c225 -4 269 -7 312 -23z"/>
<path d="M815 1733 c-21 -54 -65 -160 -97 -236 -32 -75 -58 -144 -58 -152 0
-13 30 -15 205 -15 157 0 205 3 205 13 1 24 -195 487 -205 487 -6 0 -28 -44
-50 -97z"/>
<path d="M1495 1808 c-3 -8 -4 -83 -3 -168 l3 -155 190 0 c183 0 192 1 240 25
64 32 95 78 95 139 0 63 -28 111 -81 141 -42 24 -52 25 -242 28 -160 3 -198 1
-202 -10z"/>
<path d="M1494 1387 c-2 -7 -3 -85 -2 -172 l3 -160 215 0 c209 0 216 1 264 25
71 36 91 67 91 145 0 140 -80 175 -398 175 -128 0 -169 -3 -173 -13z"/>
</g>
</svg>
